<svg width="15" height="22" viewBox="0 0 15 22" fill="none" xmlns="http://www.w3.org/2000/svg">
<path fill-rule="evenodd" clip-rule="evenodd" d="M7.49999 19.772C7.13835 19.772 6.79151 19.6283 6.53579 19.3726C6.28007 19.1169 6.13641 18.7701 6.13641 18.4084V1.36359C6.13641 1.00195 6.28007 0.655113 6.53579 0.399391C6.79151 0.143669 7.13835 5.72205e-06 7.49999 5.72205e-06C7.86164 5.72205e-06 8.20847 0.143669 8.46419 0.399391C8.71992 0.655113 8.86358 1.00195 8.86358 1.36359V18.4084C8.86358 18.7701 8.71992 19.1169 8.46419 19.3726C8.20847 19.6283 7.86164 19.772 7.49999 19.772Z" fill="#DD8A00"/>
<path fill-rule="evenodd" clip-rule="evenodd" d="M7.5 21.8174C7.13838 21.8173 6.79161 21.6736 6.53594 21.4179L0.399806 15.2817C0.143942 15.026 0.000128746 14.6792 9.53674e-07 14.3175C-0.000126839 13.9557 0.143441 13.6088 0.399124 13.3529C0.654808 13.0971 1.00166 12.9532 1.36338 12.9531C1.7251 12.953 2.07205 13.0966 2.32792 13.3522C5.18389 16.209 9.81573 16.21 12.6721 13.3536C12.9279 13.0979 13.2749 12.9544 13.6366 12.9545C13.9983 12.9546 14.3452 13.0984 14.6009 13.3543C14.8566 13.6101 15.0001 13.9571 15 14.3188C14.9999 14.6805 14.8561 15.0274 14.6002 15.2831L8.46406 21.4192C8.20817 21.6745 7.86142 21.8177 7.5 21.8174Z" fill="#DD8A00"/>
</svg>
