<svg width="47" height="44" viewBox="0 0 47 44" fill="none" xmlns="http://www.w3.org/2000/svg">
<path d="M23.375 20.25H6.325C5.01218 20.25 3.75313 20.7715 2.82482 21.6998C1.89652 22.6281 1.375 23.8872 1.375 25.2V37.3C1.375 38.6128 1.89652 39.8719 2.82482 40.8002C3.75313 41.7285 5.01218 42.25 6.325 42.25H23.375M23.375 20.25V42.25M23.375 20.25H40.425C41.7378 20.25 42.9969 20.7715 43.9252 21.6998C44.8535 22.6281 45.375 23.8872 45.375 25.2V37.3C45.375 38.6128 44.8535 39.8719 43.9252 40.8002C42.9969 41.7285 41.7378 42.25 40.425 42.25H23.375M6.875 5.95C6.875 4.63718 7.39652 3.37813 8.32482 2.44982C9.25313 1.52152 10.5122 1 11.825 1H29.425C30.7378 1 31.9969 1.52152 32.9252 2.44982C33.8535 3.37813 34.375 4.63718 34.375 5.95V20.25H11.825C11.175 20.25 10.5313 20.122 9.93072 19.8732C9.33016 19.6244 8.78447 19.2598 8.32482 18.8002C7.86517 18.3405 7.50056 17.7948 7.2518 17.1943C7.00304 16.5937 6.875 15.95 6.875 15.3V5.95Z" stroke="white" stroke-width="2"/>
<path d="M34.375 20.25V28.5M12.375 20.25V28.5M20.625 1V9.25" stroke="white" stroke-width="2" stroke-linecap="round"/>
</svg>
