<svg width="22" height="22" viewBox="0 0 22 22" fill="none" xmlns="http://www.w3.org/2000/svg">
<g clip-path="url(#clip0_10_7)">
<path d="M11 0C8.08328 0 5.28344 1.15964 3.22266 3.2218C1.15976 5.28478 0.000590302 8.08256 0 11C0 13.9162 1.16016 16.716 3.22266 18.7782C5.28344 20.8404 8.08328 22 11 22C13.9167 22 16.7166 20.8404 18.7773 18.7782C20.8398 16.716 22 13.9162 22 11C22 8.0838 20.8398 5.28395 18.7773 3.2218C16.7166 1.15964 13.9167 0 11 0Z" fill="url(#paint0_linear_10_7)"/>
<path d="M4.97921 10.8838C8.1864 9.48682 10.3245 8.5658 11.3936 8.12076C14.4495 6.85009 15.0837 6.6294 15.498 6.62192C15.5891 6.62046 15.7919 6.64298 15.9242 6.74997C16.0342 6.8402 16.0651 6.96223 16.0806 7.04791C16.0944 7.13351 16.1133 7.32859 16.0978 7.48087C15.9328 9.22024 15.2161 13.4411 14.8517 15.3894C14.6987 16.2137 14.3945 16.49 14.1006 16.517C13.4612 16.5758 12.9766 16.0949 12.3578 15.6894C11.3901 15.0547 10.8436 14.6597 9.90343 14.0405C8.81718 13.3248 9.52187 12.9314 10.1406 12.2886C10.3022 12.1203 13.1175 9.56021 13.1708 9.32801C13.1776 9.29896 13.1845 9.19068 13.1192 9.13362C13.0556 9.07638 12.9611 9.09598 12.8923 9.11145C12.7944 9.13345 11.2492 10.1558 8.25171 12.1782C7.81343 12.4797 7.4164 12.6266 7.0589 12.6189C6.66702 12.6105 5.91077 12.3968 5.34874 12.2143C4.66124 11.9904 4.11296 11.8719 4.16109 11.4916C4.18515 11.2936 4.45843 11.0909 4.97921 10.8838Z" fill="white"/>
</g>
<defs>
<linearGradient id="paint0_linear_10_7" x1="1100" y1="0" x2="1100" y2="2200" gradientUnits="userSpaceOnUse">
<stop stop-color="#2AABEE"/>
<stop offset="1" stop-color="#229ED9"/>
</linearGradient>
<clipPath id="clip0_10_7">
<rect width="22" height="22" fill="white"/>
</clipPath>
</defs>
</svg>
