<svg width="89" height="95" viewBox="0 0 89 95" fill="none" xmlns="http://www.w3.org/2000/svg">
<g filter="url(#filter0_d_142_2)">
<path d="M40.152 66.44L15.576 9.608C14.616 7.368 13.624 5.8 12.6 4.904C11.64 4.008 9.944 3.336 7.512 2.888L3.48 2.12V0.391996H33.72V2.12L29.208 2.888C27.608 3.144 26.2 3.464 24.984 3.848C23.768 4.232 23.16 4.904 23.16 5.86399C23.16 6.376 23.288 7.048 23.544 7.88C23.864 8.712 24.152 9.48 24.408 10.184L43.704 53.384H42.552L60.024 9.8C60.344 9.032 60.6 8.36 60.792 7.784C61.048 7.144 61.176 6.6 61.176 6.152C61.176 5.256 60.792 4.616 60.024 4.232C59.32 3.784 57.944 3.368 55.896 2.984L51.48 2.12V0.391996H75.48V2.12L71.448 3.08C69.528 3.528 67.992 4.136 66.84 4.904C65.688 5.608 64.6 7.208 63.576 9.704L40.92 66.44H40.152Z" fill="white"/>
</g>
<g filter="url(#filter1_d_142_2)">
<path d="M61.648 90.768C56.4 90.768 51.888 90.096 48.112 88.752C44.4 87.344 41.456 86.064 39.28 84.912C39.792 82.096 40.016 79.248 39.952 76.368C39.952 73.424 39.568 70.448 38.8 67.44H41.584C42.096 71.408 43.184 74.992 44.848 78.192C46.576 81.328 48.88 83.824 51.76 85.68C54.64 87.536 58.128 88.464 62.224 88.464C64.976 88.464 67.408 87.952 69.52 86.928C71.696 85.84 73.392 84.368 74.608 82.512C75.888 80.656 76.528 78.512 76.528 76.08C76.528 73.584 76.016 71.536 74.992 69.936C74.032 68.272 72.304 66.768 69.808 65.424C67.312 64.016 63.728 62.512 59.056 60.912C53.36 58.928 48.944 56.624 45.808 54C42.736 51.312 41.2 47.504 41.2 42.576C41.2 39.312 41.968 36.304 43.504 33.552C45.04 30.736 47.344 28.496 50.416 26.832C53.488 25.104 57.296 24.24 61.84 24.24C63.824 24.24 65.52 24.496 66.928 25.008C68.336 25.52 69.648 26.064 70.864 26.64C71.824 27.088 72.752 27.504 73.648 27.888C74.544 28.272 75.44 28.464 76.336 28.464L78.736 27.984L79.12 28.272C79.056 29.104 78.992 29.904 78.928 30.672C78.864 31.44 78.832 32.208 78.832 32.976C78.832 34.32 78.896 35.664 79.024 37.008C79.152 38.288 79.344 39.568 79.6 40.848C79.856 42.128 80.144 43.408 80.464 44.688H78.352C77.072 41.36 75.696 38.352 74.224 35.664C72.752 32.912 70.928 30.736 68.752 29.136C66.64 27.472 63.92 26.64 60.592 26.64C58.48 26.64 56.496 27.088 54.64 27.984C52.784 28.88 51.28 30.192 50.128 31.92C48.976 33.648 48.4 35.76 48.4 38.256C48.4 40.688 48.816 42.704 49.648 44.304C50.48 45.84 52.048 47.248 54.352 48.528C56.72 49.744 60.176 51.152 64.72 52.752C69.456 54.352 73.2 56.048 75.952 57.84C78.704 59.568 80.656 61.552 81.808 63.792C83.024 66.032 83.632 68.752 83.632 71.952C83.632 75.472 82.704 78.672 80.848 81.552C78.992 84.368 76.4 86.608 73.072 88.272C69.808 89.936 66 90.768 61.648 90.768Z" fill="white"/>
</g>
<defs>
<filter id="filter0_d_142_2" x="0.379996" y="0.291998" width="78.2" height="72.248" filterUnits="userSpaceOnUse" color-interpolation-filters="sRGB">
<feFlood flood-opacity="0" result="BackgroundImageFix"/>
<feColorMatrix in="SourceAlpha" type="matrix" values="0 0 0 0 0 0 0 0 0 0 0 0 0 0 0 0 0 0 127 0" result="hardAlpha"/>
<feOffset dy="3"/>
<feGaussianBlur stdDeviation="1.55"/>
<feComposite in2="hardAlpha" operator="out"/>
<feColorMatrix type="matrix" values="0 0 0 0 0 0 0 0 0 0 0 0 0 0 0 0 0 0 0.25 0"/>
<feBlend mode="normal" in2="BackgroundImageFix" result="effect1_dropShadow_142_2"/>
<feBlend mode="normal" in="SourceGraphic" in2="effect1_dropShadow_142_2" result="shape"/>
</filter>
<filter id="filter1_d_142_2" x="37.1" y="24.24" width="48.232" height="70.228" filterUnits="userSpaceOnUse" color-interpolation-filters="sRGB">
<feFlood flood-opacity="0" result="BackgroundImageFix"/>
<feColorMatrix in="SourceAlpha" type="matrix" values="0 0 0 0 0 0 0 0 0 0 0 0 0 0 0 0 0 0 127 0" result="hardAlpha"/>
<feOffset dy="2"/>
<feGaussianBlur stdDeviation="0.85"/>
<feComposite in2="hardAlpha" operator="out"/>
<feColorMatrix type="matrix" values="0 0 0 0 0 0 0 0 0 0 0 0 0 0 0 0 0 0 0.25 0"/>
<feBlend mode="normal" in2="BackgroundImageFix" result="effect1_dropShadow_142_2"/>
<feBlend mode="normal" in="SourceGraphic" in2="effect1_dropShadow_142_2" result="shape"/>
</filter>
</defs>
</svg>
