<svg width="112" height="115" viewBox="0 0 112 115" fill="none" xmlns="http://www.w3.org/2000/svg">
<path d="M0 0H112V103C112 109.627 106.627 115 100 115H12C5.37258 115 0 109.627 0 103V0Z" fill="#FAA704"/>
<g filter="url(#filter0_d_88_3)">
<path d="M50.152 77.44L25.576 20.608C24.616 18.368 23.624 16.8 22.6 15.904C21.64 15.008 19.944 14.336 17.512 13.888L13.48 13.12V11.392H43.72V13.12L39.208 13.888C37.608 14.144 36.2 14.464 34.984 14.848C33.768 15.232 33.16 15.904 33.16 16.864C33.16 17.376 33.288 18.048 33.544 18.88C33.864 19.712 34.152 20.48 34.408 21.184L53.704 64.384H52.552L70.024 20.8C70.344 20.032 70.6 19.36 70.792 18.784C71.048 18.144 71.176 17.6 71.176 17.152C71.176 16.256 70.792 15.616 70.024 15.232C69.32 14.784 67.944 14.368 65.896 13.984L61.48 13.12V11.392H85.48V13.12L81.448 14.08C79.528 14.528 77.992 15.136 76.84 15.904C75.688 16.608 74.6 18.208 73.576 20.704L50.92 77.44H50.152Z" fill="white"/>
</g>
<g filter="url(#filter1_d_88_3)">
<path d="M71.648 101.768C66.4 101.768 61.888 101.096 58.112 99.752C54.4 98.344 51.456 97.064 49.28 95.912C49.792 93.096 50.016 90.248 49.952 87.368C49.952 84.424 49.568 81.448 48.8 78.44H51.584C52.096 82.408 53.184 85.992 54.848 89.192C56.576 92.328 58.88 94.824 61.76 96.68C64.64 98.536 68.128 99.464 72.224 99.464C74.976 99.464 77.408 98.952 79.52 97.928C81.696 96.84 83.392 95.368 84.608 93.512C85.888 91.656 86.528 89.512 86.528 87.08C86.528 84.584 86.016 82.536 84.992 80.936C84.032 79.272 82.304 77.768 79.808 76.424C77.312 75.016 73.728 73.512 69.056 71.912C63.36 69.928 58.944 67.624 55.808 65C52.736 62.312 51.2 58.504 51.2 53.576C51.2 50.312 51.968 47.304 53.504 44.552C55.04 41.736 57.344 39.496 60.416 37.832C63.488 36.104 67.296 35.24 71.84 35.24C73.824 35.24 75.52 35.496 76.928 36.008C78.336 36.52 79.648 37.064 80.864 37.64C81.824 38.088 82.752 38.504 83.648 38.888C84.544 39.272 85.44 39.464 86.336 39.464L88.736 38.984L89.12 39.272C89.056 40.104 88.992 40.904 88.928 41.672C88.864 42.44 88.832 43.208 88.832 43.976C88.832 45.32 88.896 46.664 89.024 48.008C89.152 49.288 89.344 50.568 89.6 51.848C89.856 53.128 90.144 54.408 90.464 55.688H88.352C87.072 52.36 85.696 49.352 84.224 46.664C82.752 43.912 80.928 41.736 78.752 40.136C76.64 38.472 73.92 37.64 70.592 37.64C68.48 37.64 66.496 38.088 64.64 38.984C62.784 39.88 61.28 41.192 60.128 42.92C58.976 44.648 58.4 46.76 58.4 49.256C58.4 51.688 58.816 53.704 59.648 55.304C60.48 56.84 62.048 58.248 64.352 59.528C66.72 60.744 70.176 62.152 74.72 63.752C79.456 65.352 83.2 67.048 85.952 68.84C88.704 70.568 90.656 72.552 91.808 74.792C93.024 77.032 93.632 79.752 93.632 82.952C93.632 86.472 92.704 89.672 90.848 92.552C88.992 95.368 86.4 97.608 83.072 99.272C79.808 100.936 76 101.768 71.648 101.768Z" fill="white"/>
</g>
<defs>
<filter id="filter0_d_88_3" x="10.38" y="11.292" width="78.2" height="72.248" filterUnits="userSpaceOnUse" color-interpolation-filters="sRGB">
<feFlood flood-opacity="0" result="BackgroundImageFix"/>
<feColorMatrix in="SourceAlpha" type="matrix" values="0 0 0 0 0 0 0 0 0 0 0 0 0 0 0 0 0 0 127 0" result="hardAlpha"/>
<feOffset dy="3"/>
<feGaussianBlur stdDeviation="1.55"/>
<feComposite in2="hardAlpha" operator="out"/>
<feColorMatrix type="matrix" values="0 0 0 0 0 0 0 0 0 0 0 0 0 0 0 0 0 0 0.25 0"/>
<feBlend mode="normal" in2="BackgroundImageFix" result="effect1_dropShadow_88_3"/>
<feBlend mode="normal" in="SourceGraphic" in2="effect1_dropShadow_88_3" result="shape"/>
</filter>
<filter id="filter1_d_88_3" x="47.1" y="35.24" width="48.232" height="70.228" filterUnits="userSpaceOnUse" color-interpolation-filters="sRGB">
<feFlood flood-opacity="0" result="BackgroundImageFix"/>
<feColorMatrix in="SourceAlpha" type="matrix" values="0 0 0 0 0 0 0 0 0 0 0 0 0 0 0 0 0 0 127 0" result="hardAlpha"/>
<feOffset dy="2"/>
<feGaussianBlur stdDeviation="0.85"/>
<feComposite in2="hardAlpha" operator="out"/>
<feColorMatrix type="matrix" values="0 0 0 0 0 0 0 0 0 0 0 0 0 0 0 0 0 0 0.25 0"/>
<feBlend mode="normal" in2="BackgroundImageFix" result="effect1_dropShadow_88_3"/>
<feBlend mode="normal" in="SourceGraphic" in2="effect1_dropShadow_88_3" result="shape"/>
</filter>
</defs>
</svg>
